<svg width="20" height="20" viewBox="0 0 20 20" fill="none" xmlns="http://www.w3.org/2000/svg">
<g clip-path="url(#clip0_156_535)">
<path d="M20 10.0605C20 4.53805 15.5225 0.0605469 10 0.0605469C4.4775 0.0605469 0 4.53805 0 10.0605C0 15.0522 3.65667 19.1889 8.4375 19.9389V12.9514H5.89833V10.0597H8.4375V7.85805C8.4375 5.35221 9.93083 3.96721 12.215 3.96721C13.3083 3.96721 14.4533 4.16305 14.4533 4.16305V6.62388H13.1917C11.9492 6.62388 11.5617 7.39471 11.5617 8.18555V10.0605H14.335L13.8917 12.9522H11.5617V19.9397C16.3433 19.1889 20 15.0514 20 10.0605Z" fill="#1877F2"/>
</g>
<defs>
<clipPath id="clip0_156_535">
<rect width="20" height="20" fill="white"/>
</clipPath>
</defs>
</svg>
